<svg width="16" height="16" viewBox="0 0 16 16" fill="none" xmlns="http://www.w3.org/2000/svg">
<g clip-path="url(#clip0_43_858)">
<path d="M2 5.33333V8.11467C2.00008 8.46826 2.1406 8.80734 2.39067 9.05733L6.19733 12.864C6.49863 13.1653 6.90726 13.3345 7.33333 13.3345C7.75941 13.3345 8.16803 13.1653 8.46933 12.864L10.864 10.4693C11.1653 10.168 11.3345 9.75941 11.3345 9.33333C11.3345 8.90726 11.1653 8.49863 10.864 8.19733L7.05733 4.39067C6.80734 4.1406 6.46826 4.00008 6.11467 4H3.33333C2.97971 4 2.64057 4.14048 2.39052 4.39052C2.14048 4.64057 2 4.97971 2 5.33333Z" stroke="#EFEFEF" stroke-width="2" stroke-linecap="round" stroke-linejoin="round"/>
<path d="M12 12.6667L13.0613 11.6053C13.6638 11.0027 14.0023 10.1855 14.0023 9.33333C14.0023 8.48119 13.6638 7.66394 13.0613 7.06133L10 4" stroke="#EFEFEF" stroke-width="2" stroke-linecap="round" stroke-linejoin="round"/>
<path d="M4.66664 6.66667H4.65997" stroke="#EFEFEF" stroke-width="2" stroke-linecap="round" stroke-linejoin="round"/>
</g>
<defs>
<clipPath id="clip0_43_858">
<rect width="16" height="16" fill="white"/>
</clipPath>
</defs>
</svg>
