<svg width="16" height="16" viewBox="0 0 16 16" fill="none" xmlns="http://www.w3.org/2000/svg">
<g clip-path="url(#clip0_43_782)">
<path d="M9.33331 2V4.66667C9.33331 4.84348 9.40355 5.01305 9.52858 5.13807C9.6536 5.2631 9.82317 5.33333 9.99998 5.33333H12.6666" stroke="#EFEFEF" stroke-width="2" stroke-linecap="round" stroke-linejoin="round"/>
<path d="M11.3333 14H4.66665C4.31302 14 3.97389 13.8595 3.72384 13.6095C3.47379 13.3594 3.33331 13.0203 3.33331 12.6667V3.33333C3.33331 2.97971 3.47379 2.64057 3.72384 2.39052C3.97389 2.14048 4.31302 2 4.66665 2H9.33331L12.6666 5.33333V12.6667C12.6666 13.0203 12.5262 13.3594 12.2761 13.6095C12.0261 13.8595 11.6869 14 11.3333 14Z" stroke="#EFEFEF" stroke-width="2" stroke-linecap="round" stroke-linejoin="round"/>
<path d="M9.33335 7.33334H7.66669C7.40147 7.33334 7.14712 7.43869 6.95958 7.62623C6.77204 7.81377 6.66669 8.06812 6.66669 8.33334C6.66669 8.59855 6.77204 8.85291 6.95958 9.04044C7.14712 9.22798 7.40147 9.33334 7.66669 9.33334H8.33335C8.59857 9.33334 8.85292 9.43869 9.04046 9.62623C9.228 9.81377 9.33335 10.0681 9.33335 10.3333C9.33335 10.5986 9.228 10.8529 9.04046 11.0404C8.85292 11.228 8.59857 11.3333 8.33335 11.3333H6.66669" stroke="#EFEFEF" stroke-width="2" stroke-linecap="round" stroke-linejoin="round"/>
<path d="M8 11.3333V12M8 6.66666V7.33333" stroke="#EFEFEF" stroke-width="2" stroke-linecap="round" stroke-linejoin="round"/>
</g>
<defs>
<clipPath id="clip0_43_782">
<rect width="16" height="16" fill="white"/>
</clipPath>
</defs>
</svg>
