<svg width="16" height="16" viewBox="0 0 16 16" fill="none" xmlns="http://www.w3.org/2000/svg">
<g clip-path="url(#clip0_43_763)">
<path d="M5.99998 3.33333H4.66665C4.31302 3.33333 3.97389 3.4738 3.72384 3.72385C3.47379 3.9739 3.33331 4.31304 3.33331 4.66666V12.6667C3.33331 13.0203 3.47379 13.3594 3.72384 13.6095C3.97389 13.8595 4.31302 14 4.66665 14H11.3333C11.6869 14 12.0261 13.8595 12.2761 13.6095C12.5262 13.3594 12.6666 13.0203 12.6666 12.6667V4.66666C12.6666 4.31304 12.5262 3.9739 12.2761 3.72385C12.0261 3.4738 11.6869 3.33333 11.3333 3.33333H9.99998" stroke="#EFEFEF" stroke-width="2" stroke-linecap="round" stroke-linejoin="round"/>
<path d="M6 3.33333C6 2.97971 6.14048 2.64057 6.39052 2.39052C6.64057 2.14048 6.97971 2 7.33333 2H8.66667C9.02029 2 9.35943 2.14048 9.60948 2.39052C9.85952 2.64057 10 2.97971 10 3.33333C10 3.68696 9.85952 4.02609 9.60948 4.27614C9.35943 4.52619 9.02029 4.66667 8.66667 4.66667H7.33333C6.97971 4.66667 6.64057 4.52619 6.39052 4.27614C6.14048 4.02609 6 3.68696 6 3.33333Z" stroke="#EFEFEF" stroke-width="2" stroke-linecap="round" stroke-linejoin="round"/>
<path d="M6 8H6.00667" stroke="#EFEFEF" stroke-width="2" stroke-linecap="round" stroke-linejoin="round"/>
<path d="M8.66669 8H10" stroke="#EFEFEF" stroke-width="2" stroke-linecap="round" stroke-linejoin="round"/>
<path d="M6 10.6667H6.00667" stroke="#EFEFEF" stroke-width="2" stroke-linecap="round" stroke-linejoin="round"/>
<path d="M8.66669 10.6667H10" stroke="#EFEFEF" stroke-width="2" stroke-linecap="round" stroke-linejoin="round"/>
</g>
<defs>
<clipPath id="clip0_43_763">
<rect width="16" height="16" fill="white"/>
</clipPath>
</defs>
</svg>
