<svg width="16" height="16" viewBox="0 0 16 16" fill="none" xmlns="http://www.w3.org/2000/svg">
<g clip-path="url(#clip0_40_764)">
<path d="M6 4.66666C6 5.19709 6.21071 5.7058 6.58579 6.08087C6.96086 6.45594 7.46957 6.66666 8 6.66666C8.53043 6.66666 9.03914 6.45594 9.41421 6.08087C9.78929 5.7058 10 5.19709 10 4.66666C10 4.13622 9.78929 3.62752 9.41421 3.25244C9.03914 2.87737 8.53043 2.66666 8 2.66666C7.46957 2.66666 6.96086 2.87737 6.58579 3.25244C6.21071 3.62752 6 4.13622 6 4.66666Z" stroke="#EFEFEF" stroke-width="2" stroke-linecap="round" stroke-linejoin="round"/>
<path d="M9.33331 10.6667C9.33331 11.1971 9.54403 11.7058 9.9191 12.0809C10.2942 12.4559 10.8029 12.6667 11.3333 12.6667C11.8637 12.6667 12.3725 12.4559 12.7475 12.0809C13.1226 11.7058 13.3333 11.1971 13.3333 10.6667C13.3333 10.1362 13.1226 9.62752 12.7475 9.25244C12.3725 8.87737 11.8637 8.66666 11.3333 8.66666C10.8029 8.66666 10.2942 8.87737 9.9191 9.25244C9.54403 9.62752 9.33331 10.1362 9.33331 10.6667Z" stroke="#EFEFEF" stroke-width="2" stroke-linecap="round" stroke-linejoin="round"/>
<path d="M2.66669 10.6667C2.66669 10.9293 2.71842 11.1894 2.81893 11.432C2.91944 11.6747 3.06676 11.8952 3.25247 12.0809C3.43819 12.2666 3.65867 12.4139 3.90132 12.5144C4.14397 12.6149 4.40404 12.6667 4.66669 12.6667C4.92933 12.6667 5.1894 12.6149 5.43205 12.5144C5.67471 12.4139 5.89518 12.2666 6.0809 12.0809C6.26662 11.8952 6.41394 11.6747 6.51445 11.432C6.61496 11.1894 6.66669 10.9293 6.66669 10.6667C6.66669 10.404 6.61496 10.1439 6.51445 9.90129C6.41394 9.65864 6.26662 9.43816 6.0809 9.25244C5.89518 9.06673 5.67471 8.91941 5.43205 8.8189C5.1894 8.71839 4.92933 8.66666 4.66669 8.66666C4.40404 8.66666 4.14397 8.71839 3.90132 8.8189C3.65867 8.91941 3.43819 9.06673 3.25247 9.25244C3.06676 9.43816 2.91944 9.65864 2.81893 9.90129C2.71842 10.1439 2.66669 10.404 2.66669 10.6667Z" stroke="#EFEFEF" stroke-width="2" stroke-linecap="round" stroke-linejoin="round"/>
</g>
<defs>
<clipPath id="clip0_40_764">
<rect width="16" height="16" fill="white"/>
</clipPath>
</defs>
</svg>
