<svg width="16" height="16" viewBox="0 0 16 16" fill="none" xmlns="http://www.w3.org/2000/svg">
<g clip-path="url(#clip0_14_365)">
<path d="M2.66675 4.66667H13.3334" stroke="#EFEFEF" stroke-width="2" stroke-linecap="round" stroke-linejoin="round"/>
<path d="M6.66675 7.33333V11.3333" stroke="#EFEFEF" stroke-width="2" stroke-linecap="round" stroke-linejoin="round"/>
<path d="M9.33325 7.33333V11.3333" stroke="#EFEFEF" stroke-width="2" stroke-linecap="round" stroke-linejoin="round"/>
<path d="M3.33325 4.66667L3.99992 12.6667C3.99992 13.0203 4.14039 13.3594 4.39044 13.6095C4.64049 13.8595 4.97963 14 5.33325 14H10.6666C11.0202 14 11.3593 13.8595 11.6094 13.6095C11.8594 13.3594 11.9999 13.0203 11.9999 12.6667L12.6666 4.66667" stroke="#EFEFEF" stroke-width="2" stroke-linecap="round" stroke-linejoin="round"/>
<path d="M6 4.66667V2.66667C6 2.48986 6.07024 2.32029 6.19526 2.19526C6.32029 2.07024 6.48986 2 6.66667 2H9.33333C9.51014 2 9.67971 2.07024 9.80474 2.19526C9.92976 2.32029 10 2.48986 10 2.66667V4.66667" stroke="#EFEFEF" stroke-width="2" stroke-linecap="round" stroke-linejoin="round"/>
</g>
<defs>
<clipPath id="clip0_14_365">
<rect width="16" height="16" fill="white"/>
</clipPath>
</defs>
</svg>
